<svg width="15" height="15" viewBox="0 0 15 15" fill="none" xmlns="http://www.w3.org/2000/svg">
<path d="M14.5691 0.203297C14.4514 0.084008 14.2949 0.0122856 14.1289 0.00153356C13.9629 -0.00921849 13.7987 0.0417357 13.6671 0.144873L6.2333 5.90933L6.16293 5.98723L4.35247 8.74612C4.3114 8.80832 4.29279 8.88302 4.29978 8.95755C4.30678 9.03208 4.33895 9.10187 4.39085 9.15509L5.7471 10.5313C5.8102 10.5894 5.89222 10.6217 5.9774 10.6222C6.03897 10.6241 6.09951 10.6058 6.15013 10.5702L8.86902 8.73314L8.94579 8.66173L14.6267 1.1186C14.7283 0.984983 14.7785 0.818383 14.7679 0.649934C14.7573 0.481485 14.6867 0.322715 14.5691 0.203297Z" fill="white"/>
<path d="M3.94285 9.60946C3.88056 9.55244 3.79964 9.52087 3.71574 9.52087C3.63185 9.52087 3.55093 9.55244 3.48864 9.60946L3.13038 9.97298H1.94687C1.73481 9.97313 1.52877 10.0446 1.36095 10.1761C1.19313 10.3076 1.07297 10.4919 1.01925 10.7L0.00845829 14.5949C-0.00385345 14.6498 -0.00270931 14.7069 0.0117904 14.7612C0.0262901 14.8156 0.0537026 14.8655 0.0916243 14.9065C0.133078 14.9455 0.183339 14.9737 0.237994 14.9884C0.29265 15.0031 0.35003 15.004 0.405096 14.9909L4.24353 13.9653C4.4478 13.9076 4.62728 13.7824 4.75357 13.6096C4.87987 13.4367 4.94577 13.2261 4.94084 13.011V11.8101L5.2991 11.4466C5.35771 11.3859 5.39054 11.3043 5.39054 11.2193C5.39054 11.1344 5.35771 11.0528 5.2991 10.9921L3.94285 9.60946ZM3.48864 12.1347C3.44453 12.1806 3.39181 12.2171 3.33357 12.242C3.27534 12.2669 3.21278 12.2798 3.14958 12.2798C3.08637 12.2798 3.02381 12.2669 2.96558 12.242C2.90735 12.2171 2.85462 12.1806 2.81051 12.1347C2.74335 12.0666 2.6976 11.9798 2.67903 11.8854C2.66047 11.7909 2.66994 11.693 2.70624 11.604C2.74254 11.515 2.80403 11.4389 2.88295 11.3854C2.96187 11.3319 3.05465 11.3033 3.14958 11.3033C3.2445 11.3033 3.33729 11.3319 3.4162 11.3854C3.49512 11.4389 3.55662 11.515 3.59291 11.604C3.62921 11.693 3.63868 11.7909 3.62012 11.8854C3.60156 11.9798 3.5558 12.0666 3.48864 12.1347Z" fill="white"/>
</svg>
