<svg width="86" height="25" viewBox="0 0 86 25" fill="none" xmlns="http://www.w3.org/2000/svg">
<path d="M14.5691 5.2033C14.4514 5.08401 14.2949 5.01229 14.1289 5.00153C13.9629 4.99078 13.7987 5.04174 13.6671 5.14487L6.2333 10.9093L6.16293 10.9872L4.35247 13.7461C4.3114 13.8083 4.29279 13.883 4.29978 13.9575C4.30678 14.0321 4.33895 14.1019 4.39085 14.1551L5.7471 15.5313C5.8102 15.5894 5.89222 15.6217 5.9774 15.6222C6.03897 15.6241 6.09951 15.6058 6.15013 15.5702L8.86902 13.7331L8.94579 13.6617L14.6267 6.1186C14.7283 5.98498 14.7785 5.81838 14.7679 5.64993C14.7573 5.48149 14.6867 5.32272 14.5691 5.2033Z" fill="white"/>
<path d="M3.94285 14.6095C3.88056 14.5524 3.79964 14.5209 3.71574 14.5209C3.63185 14.5209 3.55093 14.5524 3.48864 14.6095L3.13038 14.973H1.94687C1.73481 14.9731 1.52877 15.0446 1.36095 15.1761C1.19313 15.3076 1.07297 15.4919 1.01925 15.7L0.00845829 19.5949C-0.00385345 19.6498 -0.00270931 19.7069 0.0117904 19.7612C0.0262901 19.8156 0.0537026 19.8655 0.0916243 19.9065C0.133078 19.9455 0.183339 19.9737 0.237994 19.9884C0.29265 20.0031 0.35003 20.004 0.405096 19.9909L4.24353 18.9653C4.4478 18.9076 4.62728 18.7824 4.75357 18.6096C4.87987 18.4367 4.94577 18.2261 4.94084 18.011V16.8101L5.2991 16.4466C5.35771 16.3859 5.39054 16.3043 5.39054 16.2193C5.39054 16.1344 5.35771 16.0528 5.2991 15.9921L3.94285 14.6095ZM3.48864 17.1347C3.44453 17.1806 3.39181 17.2171 3.33357 17.242C3.27534 17.2669 3.21278 17.2798 3.14958 17.2798C3.08637 17.2798 3.02381 17.2669 2.96558 17.242C2.90735 17.2171 2.85462 17.1806 2.81051 17.1347C2.74335 17.0666 2.6976 16.9798 2.67903 16.8854C2.66047 16.7909 2.66994 16.693 2.70624 16.604C2.74254 16.515 2.80403 16.4389 2.88295 16.3854C2.96187 16.3319 3.05465 16.3033 3.14958 16.3033C3.2445 16.3033 3.33729 16.3319 3.4162 16.3854C3.49512 16.4389 3.55662 16.515 3.59291 16.604C3.62921 16.693 3.63868 16.7909 3.62012 16.8854C3.60156 16.9798 3.5558 17.0666 3.48864 17.1347Z" fill="white"/>
<path d="M24.336 8.432C25.368 8.432 26.14 8.632 26.652 9.032C27.164 9.432 27.42 10.04 27.42 10.856C27.42 11.264 27.352 11.632 27.216 11.96C27.088 12.288 26.888 12.568 26.616 12.8C26.352 13.024 26.012 13.196 25.596 13.316C25.188 13.436 24.704 13.496 24.144 13.496H22.896V17H22.2V8.432H24.336ZM24.264 9.044H22.896V12.896H24.072C24.624 12.896 25.096 12.836 25.488 12.716C25.888 12.588 26.188 12.38 26.388 12.092C26.596 11.796 26.7 11.396 26.7 10.892C26.7 10.252 26.504 9.784 26.112 9.488C25.72 9.192 25.104 9.044 24.264 9.044ZM33.7784 10.508C34.4984 10.508 35.0344 10.684 35.3864 11.036C35.7384 11.388 35.9144 11.948 35.9144 12.716V17H35.3984L35.2784 15.92H35.2424C35.0904 16.16 34.9144 16.372 34.7144 16.556C34.5224 16.732 34.2864 16.872 34.0064 16.976C33.7344 17.072 33.3984 17.12 32.9984 17.12C32.5984 17.12 32.2504 17.052 31.9544 16.916C31.6584 16.772 31.4304 16.568 31.2704 16.304C31.1104 16.04 31.0304 15.716 31.0304 15.332C31.0304 14.7 31.2904 14.22 31.8104 13.892C32.3304 13.556 33.0864 13.364 34.0784 13.316L35.2424 13.268V12.812C35.2424 12.18 35.1144 11.736 34.8584 11.48C34.6104 11.216 34.2384 11.084 33.7424 11.084C33.4144 11.084 33.0984 11.128 32.7944 11.216C32.4984 11.296 32.1984 11.412 31.8944 11.564L31.6784 11.024C31.9744 10.872 32.3024 10.748 32.6624 10.652C33.0224 10.556 33.3944 10.508 33.7784 10.508ZM34.1504 13.82C33.3424 13.86 32.7384 14.004 32.3384 14.252C31.9384 14.492 31.7384 14.856 31.7384 15.344C31.7384 15.736 31.8624 16.036 32.1104 16.244C32.3584 16.444 32.6944 16.544 33.1184 16.544C33.7984 16.544 34.3184 16.356 34.6784 15.98C35.0464 15.604 35.2344 15.076 35.2424 14.396V13.772L34.1504 13.82ZM41.04 17H40.356V7.88H41.04V17ZM48.0171 17H47.3211V9.056H44.5611V8.432H50.7771V9.056H48.0171V17ZM55.8766 10.496C56.4286 10.496 56.8846 10.624 57.2446 10.88C57.6126 11.128 57.8886 11.472 58.0726 11.912C58.2646 12.352 58.3606 12.86 58.3606 13.436V13.892H53.8006C53.8006 14.748 53.9966 15.4 54.3886 15.848C54.7886 16.296 55.3526 16.52 56.0806 16.52C56.4806 16.52 56.8286 16.488 57.1246 16.424C57.4206 16.36 57.7446 16.248 58.0966 16.088V16.712C57.7766 16.856 57.4606 16.96 57.1486 17.024C56.8366 17.088 56.4726 17.12 56.0566 17.12C55.4246 17.12 54.8846 16.988 54.4366 16.724C53.9966 16.46 53.6606 16.084 53.4286 15.596C53.2046 15.1 53.0926 14.524 53.0926 13.868C53.0926 13.212 53.2006 12.632 53.4166 12.128C53.6326 11.624 53.9486 11.228 54.3646 10.94C54.7806 10.644 55.2846 10.496 55.8766 10.496ZM55.8766 11.072C55.2846 11.072 54.8086 11.268 54.4486 11.66C54.0886 12.044 53.8766 12.6 53.8126 13.328H57.6526C57.6526 12.88 57.5886 12.488 57.4606 12.152C57.3326 11.816 57.1366 11.552 56.8726 11.36C56.6166 11.168 56.2846 11.072 55.8766 11.072ZM63.7873 13.724L61.5673 10.616H62.3593L64.1953 13.256L66.0433 10.616H66.8233L64.6153 13.724L66.9553 17H66.1633L64.1953 14.192L62.2393 17H61.4593L63.7873 13.724ZM72.4982 16.544C72.6742 16.544 72.8422 16.532 73.0022 16.508C73.1622 16.476 73.3022 16.44 73.4222 16.4V16.952C73.3022 17 73.1502 17.04 72.9662 17.072C72.7902 17.104 72.6022 17.12 72.4022 17.12C72.0502 17.12 71.7502 17.056 71.5022 16.928C71.2542 16.792 71.0622 16.584 70.9262 16.304C70.7982 16.024 70.7342 15.664 70.7342 15.224V11.168H69.7982V10.784L70.7342 10.568L70.9862 9.092H71.4182V10.616H73.3862V11.168H71.4182V15.2C71.4182 15.64 71.5062 15.976 71.6822 16.208C71.8582 16.432 72.1302 16.544 72.4982 16.544Z" fill="white"/>
</svg>
